HIERARCHY
ROOT Hips
{
	OFFSET 0.000000 0.000000 0.000000
	CHANNELS 6 Xposition Yposition Zposition Zrotation Yrotation Xrotation 
	JOINT LowerBack
	{
		OFFSET 0.000000 0.000000 0.000000
		CHANNELS 3 Zrotation Yrotation Xrotation
		JOINT Spine
		{
			OFFSET 0.028270 2.035590 -0.193380
			CHANNELS 3 Zrotation Yrotation Xrotation
			JOINT Spine1
			{
				OFFSET 0.056720 2.048850 -0.042750
				CHANNELS 3 Zrotation Yrotation Xrotation
				JOINT Neck
				{
					OFFSET 0.000000 0.000000 0.000000
					CHANNELS 3 Zrotation Yrotation Xrotation
					JOINT Neck1
					{
						OFFSET -0.054170 1.746240 0.172020
						CHANNELS 3 Zrotation Yrotation Xrotation
						JOINT Head
						{
							OFFSET 0.104070 1.761360 -0.123970
							CHANNELS 3 Zrotation Yrotation Xrotation
							End Site
							{
								OFFSET 0.000000 0.000000 0.000000
							}
						}
					}
				}
				JOINT LeftShoulder
				{
					OFFSET 0.000000 0.000000 0.000000
					CHANNELS 3 Zrotation Yrotation Xrotation
					JOINT LeftArm
					{
						OFFSET 3.362410 1.200890 -0.311210
						CHANNELS 3 Zrotation Yrotation Xrotation
						JOINT LeftForeArm
						{
							OFFSET 4.983000 -0.000000 -0.000000
							CHANNELS 3 Zrotation Yrotation Xrotation
							JOINT LeftHand
							{
								OFFSET 3.483560 -0.000000 -0.000000
								CHANNELS 3 Zrotation Yrotation Xrotation
								JOINT LeftFingerBase
								{
									OFFSET 0.000000 0.000000 0.000000
									CHANNELS 3 Zrotation Yrotation Xrotation
									JOINT LeftHandIndex1
									{
										OFFSET 0.715260 -0.000000 -0.000000
										CHANNELS 3 Zrotation Yrotation Xrotation
										End Site
										{
											OFFSET 0.000000 0.000000 0.000000
										}
									}
								}
								JOINT LThumb
								{
									OFFSET 0.000000 0.000000 0.000000
									CHANNELS 3 Zrotation Yrotation Xrotation
									End Site
									{
										OFFSET 0.000000 0.000000 0.000000
									}
								}
							}
						}
					}
				}
				JOINT RightShoulder
				{
					OFFSET 0.000000 0.000000 0.000000
					CHANNELS 3 Zrotation Yrotation Xrotation
					JOINT RightArm
					{
						OFFSET -3.136600 1.374050 -0.404650
						CHANNELS 3 Zrotation Yrotation Xrotation
						JOINT RightForeArm
						{
							OFFSET -5.241900 -0.000000 -0.000000
							CHANNELS 3 Zrotation Yrotation Xrotation
							JOINT RightHand
							{
								OFFSET -3.444170 -0.000000 -0.000000
								CHANNELS 3 Zrotation Yrotation Xrotation
								JOINT RightFingerBase
								{
									OFFSET 0.000000 0.000000 0.000000
									CHANNELS 3 Zrotation Yrotation Xrotation
									JOINT RightHandIndex1
									{
										OFFSET -0.622530 -0.000000 -0.000000
										CHANNELS 3 Zrotation Yrotation Xrotation
										End Site
										{
											OFFSET 0.000000 0.000000 0.000000
										}
									}
								}
								JOINT RThumb
								{
									OFFSET 0.000000 0.000000 0.000000
									CHANNELS 3 Zrotation Yrotation Xrotation
									End Site
									{
										OFFSET 0.000000 0.000000 0.000000
									}
								}
							}
						}
					}
				}
			}
		}
	}
}
}
MOTION
Frames: 15
Frame Time: 0.008333
2.223818 17.248433 1.214683 21.539717 -86.976844 -11.386459 -2.015604 -2.666992 -3.207832 -1.140289 -2.679298 -3.467041 -6.855331 -2.780408 0.524117 11.453963 -9.104562 -6.992538 -3.579306 -0.288232 0.202143 0.000000 0.000000 0.000000 -1.243795 4.014639 1.285789 -70.723624 5.730036 9.404044 -3.147909 -26.755679 0.005733 3.750242 -3.620462 -0.120679 -0.079652 0.005108 -0.000000 0.000000 0.000000 0.000000 0.000000 0.000000 0.000000 17.390420 -6.862336 0.751743 70.586126 4.349933 -3.538593 3.327301 23.066433 0.017599 -1.114779 10.991359 -0.116754 0.095573 -0.109338 -0.000000 0.000000 0.000000 0.000000 0.000000 0.000000 0.000000 
2.266384 17.245706 1.249226 15.807958 -86.827565 -5.836788 -1.781378 -2.758215 -2.771466 -1.092884 -2.776420 -3.398172 -6.883197 -2.874317 0.459003 11.490238 -8.998684 -6.984448 -3.591062 -0.288279 0.199051 0.000000 0.000000 0.000000 -1.202439 3.752112 1.347929 -70.722585 5.572256 9.755935 -3.132006 -27.001411 0.005544 3.693257 -3.610606 -0.118673 -0.079431 0.007860 -0.000000 0.000000 0.000000 0.000000 0.000000 0.000000 0.000000 17.440897 -6.816160 0.794816 70.528621 4.383105 -3.604379 3.317385 23.096921 0.017361 -1.096077 10.975860 -0.114667 0.094448 -0.109832 -0.000000 0.000000 0.000000 0.000000 0.000000 0.000000 0.000000 
2.310076 17.242633 1.282479 9.912899 -86.637755 -0.143088 -1.499962 -2.857403 -2.306891 -1.039366 -2.883054 -3.325688 -6.919351 -2.976972 0.388661 11.528265 -8.882512 -6.974637 -3.609917 -0.288844 0.195928 0.000000 0.000000 0.000000 -1.188491 3.479516 1.415071 -70.662454 5.400220 10.189696 -3.114052 -27.269439 0.005367 3.641513 -3.610410 -0.117069 -0.079069 0.010553 -0.000000 0.000000 0.000000 0.000000 0.000000 0.000000 0.000000 17.520971 -6.764688 0.837842 70.458621 4.411169 -3.639131 3.304806 23.148561 0.017106 -1.101701 10.980750 -0.115179 0.093300 -0.110340 -0.000000 0.000000 0.000000 0.000000 0.000000 0.000000 0.000000 
2.354192 17.239632 1.314428 4.058700 -86.408837 5.498583 -1.171166 -2.958916 -1.826181 -0.980149 -2.993768 -3.252321 -6.963229 -3.083143 0.313176 11.565890 -8.756599 -6.960167 -3.635567 -0.289955 0.193774 0.000000 0.000000 0.000000 -1.203530 3.192068 1.485567 -70.545221 5.216902 10.686791 -3.094401 -27.545666 0.005214 3.601797 -3.625429 -0.116363 -0.078581 0.013132 -0.000000 0.000000 0.000000 0.000000 0.000000 0.000000 0.000000 17.625837 -6.707441 0.880985 70.380184 4.423749 -3.655814 3.290084 23.215792 0.016837 -1.135607 11.008638 -0.118692 0.092172 -0.110855 -0.000000 0.000000 0.000000 0.000000 0.000000 0.000000 0.000000 
2.398261 17.237103 1.345183 -1.575843 -86.142994 10.914525 -0.797801 -3.057716 -1.341370 -0.915554 -3.103641 -3.179946 -7.013099 -3.188142 0.235529 11.600955 -8.627794 -6.941569 -3.666876 -0.291533 0.192640 0.000000 0.000000 0.000000 -1.247612 2.896098 1.557172 -70.377556 5.010610 11.234329 -3.073808 -27.803587 0.005087 3.581844 -3.659579 -0.116858 -0.078032 0.015582 -0.000000 0.000000 0.000000 0.000000 0.000000 0.000000 0.000000 17.749317 -6.650481 0.923354 70.296180 4.420599 -3.657528 3.274090 23.286278 0.016560 -1.202722 11.060457 -0.125705 0.091137 -0.111346 -0.000000 0.000000 0.000000 0.000000 0.000000 0.000000 0.000000 
2.441525 17.235495 1.374756 -6.765433 -85.842075 15.889582 -0.391397 -3.150207 -0.866432 -0.847305 -3.208766 -3.111818 -7.067670 -3.288558 0.153627 11.630827 -8.490859 -6.912698 -3.703198 -0.293623 0.194417 0.000000 0.000000 0.000000 -1.318027 2.575248 1.629167 -70.169633 4.797270 11.795405 -3.052925 -28.031699 0.004987 3.584551 -3.711619 -0.118754 -0.077424 0.017844 -0.000000 0.000000 0.000000 0.000000 0.000000 0.000000 0.000000 17.883459 -6.588306 0.965832 70.214105 4.383263 -3.672452 3.257522 23.354614 0.016273 -1.295379 11.132032 -0.135515 0.090162 -0.111784 -0.000000 0.000000 0.000000 0.000000 0.000000 0.000000 0.000000 
2.483423 17.235136 1.403107 -11.314995 -85.508180 20.236658 0.031734 -3.235943 -0.414469 -0.777193 -3.308014 -3.047575 -7.123243 -3.383326 0.078137 11.656243 -8.369770 -6.883049 -3.741745 -0.295915 0.196622 0.000000 0.000000 0.000000 -1.405871 2.259976 1.697946 -69.935609 4.535981 12.372331 -3.033884 -28.184838 0.004911 3.613446 -3.778699 -0.121849 -0.076930 0.019967 0.000000 0.000000 0.000000 0.000000 0.000000 0.000000 0.000000 18.024191 -6.546258 1.004919 70.135494 4.336512 -3.673302 3.241571 23.394811 0.015990 -1.421632 11.220566 -0.149127 0.089393 -0.112069 -0.000000 0.000000 0.000000 0.000000 0.000000 0.000000 0.000000 
2.524056 17.236386 1.431655 -15.622789 -85.141791 24.348791 0.509455 -3.307923 0.014835 -0.698016 -3.396840 -2.990923 -7.178958 -3.468289 -0.003433 11.661969 -8.232783 -6.836999 -3.782309 -0.298577 0.203786 0.000000 0.000000 0.000000 -1.529629 1.909998 1.766873 -69.688503 4.269403 12.911881 -3.014807 -28.274297 0.004837 3.666720 -3.854944 -0.126145 -0.076357 0.021926 0.000000 0.000000 0.000000 0.000000 0.000000 0.000000 0.000000 18.143469 -6.489356 1.045549 70.068779 4.240581 -3.730818 3.228482 23.412191 0.015714 -1.552140 11.314987 -0.163338 0.088671 -0.112269 -0.000000 0.000000 0.000000 0.000000 0.000000 0.000000 0.000000 
2.562598 17.239260 1.459184 -19.195006 -84.750328 27.747389 0.987725 -3.371060 0.404315 -0.618704 -3.477168 -2.941018 -7.231705 -3.545395 -0.078712 11.658406 -8.107576 -6.786013 -3.822284 -0.301304 0.212714 0.000000 0.000000 0.000000 -1.661137 1.557097 1.831892 -69.443623 3.961913 13.414446 -2.999288 -28.263560 0.004766 3.738060 -3.930428 -0.131144 -0.075918 0.023748 0.000000 0.000000 0.000000 0.000000 0.000000 0.000000 0.000000 18.251478 -6.447461 1.083431 70.019548 4.121705 -3.809404 3.218054 23.383943 0.015450 -1.689527 11.406544 -0.178450 0.088069 -0.112233 -0.000000 0.000000 0.000000 0.000000 0.000000 0.000000 0.000000 
2.599163 17.243768 1.486501 -22.306329 -84.339394 30.704445 1.485300 -3.422006 0.754127 -0.535302 -3.546851 -2.898134 -7.279126 -3.612438 -0.147831 11.637865 -7.992312 -6.730536 -3.859837 -0.303954 0.223382 0.000000 0.000000 0.000000 -1.807680 1.205023 1.893125 -69.212953 3.610851 13.862614 -2.987084 -28.147226 0.004681 3.820506 -3.996494 -0.136243 -0.075573 0.025487 0.000000 0.000000 0.000000 0.000000 0.000000 0.000000 0.000000 18.331385 -6.416328 1.119637 69.990083 3.983516 -3.917049 3.212338 23.299978 0.015209 -1.820184 11.485030 -0.192962 0.087598 -0.111968 -0.000000 0.000000 0.000000 0.000000 0.000000 0.000000 0.000000 
2.633711 17.249730 1.513591 -25.001950 -83.918776 33.266362 1.995272 -3.460159 1.063022 -0.448826 -3.604939 -2.862375 -7.319966 -3.668478 -0.210972 11.599597 -7.883823 -6.670868 -3.893896 -0.306446 0.235665 0.000000 0.000000 0.000000 -1.965158 0.856962 1.950745 -69.005168 3.218972 14.240272 -2.978708 -27.928237 0.004574 3.904266 -4.044606 -0.140943 -0.075311 0.027181 0.000000 0.000000 0.000000 0.000000 0.000000 0.000000 0.000000 18.378142 -6.390602 1.154818 69.985280 3.825513 -4.060981 3.212025 23.157106 0.014995 -1.928865 11.539752 -0.204975 0.087201 -0.111462 -0.000000 0.000000 0.000000 0.000000 0.000000 0.000000 0.000000 
2.666340 17.256808 1.539701 -27.214407 -83.503129 35.364590 2.490266 -3.488012 1.331977 -0.364183 -3.652297 -2.832447 -7.353675 -3.714276 -0.266147 11.549790 -7.790789 -6.611087 -3.923636 -0.308676 0.248306 0.000000 0.000000 0.000000 -2.119976 0.517304 2.003761 -68.825177 2.791213 14.531536 -2.975201 -27.618029 0.004438 3.977125 -4.066646 -0.144344 -0.075148 0.028845 0.000000 0.000000 0.000000 0.000000 0.000000 0.000000 0.000000 18.398779 -6.378165 1.189005 70.007992 3.660516 -4.222448 3.216758 22.950564 0.014807 -2.008788 11.559444 -0.213388 0.086861 -0.110682 -0.000000 0.000000 0.000000 0.000000 0.000000 0.000000 0.000000 
2.697615 17.264754 1.566914 -29.443596 -83.090500 37.491480 3.030018 -3.497925 1.570976 -0.270095 -3.684567 -2.808976 -7.378530 -3.745515 -0.318386 11.470173 -7.681399 -6.547497 -3.948237 -0.310582 0.262325 0.000000 0.000000 0.000000 -2.304101 0.205726 2.056019 -68.673714 2.313571 14.751398 -2.974391 -27.222466 0.004265 4.039550 -4.065435 -0.146647 -0.075018 0.030659 0.000000 0.000000 0.000000 0.000000 0.000000 0.000000 0.000000 18.362297 -6.339880 1.224009 70.057537 3.470206 -4.445556 3.229237 22.692187 0.014666 -2.034640 11.543672 -0.215700 0.086492 -0.109756 -0.000000 0.000000 0.000000 0.000000 0.000000 0.000000 0.000000 
2.727364 17.273010 1.592831 -31.325669 -82.701861 39.283079 3.543265 -3.499135 1.782500 -0.179926 -3.706670 -2.788883 -7.396257 -3.766911 -0.363224 11.381741 -7.582588 -6.488294 -3.968117 -0.312120 0.275169 0.000000 0.000000 0.000000 -2.483941 -0.080611 2.104798 -68.546424 1.806572 14.877688 -2.978299 -26.773636 0.004061 4.077685 -4.034942 -0.146949 -0.074973 0.032551 0.000000 0.000000 0.000000 0.000000 0.000000 0.000000 0.000000 18.302401 -6.305821 1.258892 70.133820 3.282941 -4.670720 3.246670 22.377838 0.014548 -2.016600 11.483040 -0.212714 0.086111 -0.108583 -0.000000 0.000000 0.000000 0.000000 0.000000 0.000000 0.000000 
2.755879 17.281229 1.617965 -33.047002 -82.340589 40.919747 4.044847 -3.491094 1.977184 -0.091058 -3.718582 -2.771141 -7.407464 -3.778406 -0.403248 11.281184 -7.480899 -6.433074 -3.983783 -0.313304 0.286807 0.000000 0.000000 0.000000 -2.670478 -0.331688 2.152151 -68.436479 1.271762 14.919310 -2.985729 -26.294825 0.003831 4.092863 -3.980590 -0.145553 -0.074986 0.034602 0.000000 0.000000 0.000000 0.000000 0.000000 0.000000 0.000000 18.215150 -6.259921 1.294310 70.233594 3.094841 -4.903649 3.269255 22.019711 0.014455 -1.946722 11.379589 -0.203728 0.085664 -0.107218 -0.000000 0.000000 0.000000 0.000000 0.000000 0.000000 0.000000 
